<svg width="15" height="14" viewBox="0 0 15 14" fill="none" xmlns="http://www.w3.org/2000/svg">
<path fill-rule="black" clip-rule="evenodd" d="M13.8198 6.98245C15.4678 5.28173 15.3712 2.46573 13.5329 0.896729C11.9725 -0.433038 9.67253 -0.236606 8.19306 1.17348C8.15161 1.21298 8.11081 1.25343 8.07069 1.29483L7.49402 1.88906L6.91735 1.29483C6.87727 1.25339 6.83651 1.2129 6.79509 1.17336C5.31816 -0.236616 3.0155 -0.433003 1.45513 0.896729C-0.38317 2.46573 -0.479769 5.28173 1.16534 6.98245L6.82954 12.8311C7.19544 13.2087 7.78967 13.2087 8.15558 12.8311L13.8198 6.98245ZM7.49256 12.0783L13.1014 6.28676C14.3535 4.9947 14.2768 2.84692 12.8843 1.65785C11.7284 0.672786 9.93842 0.804566 8.78877 1.99078L7.49402 3.32497L6.19857 1.99007C5.05256 0.805244 3.26035 0.672473 2.10404 1.6576C0.711235 2.84665 0.634156 4.99476 1.88391 6.28699C1.88397 6.28706 1.88384 6.28693 1.88391 6.28699L7.49256 12.0783Z" fill="black"/>
</svg>
